<mxfile host="65bd71144e" pages="6">
    <diagram id="N94Y8VnRov7ll7cmfJBZ" name="Registration">
        <mxGraphModel dx="1103" dy="609" grid="1" gridSize="10" guides="1" tooltips="1" connect="1" arrows="1" fold="1" page="1" pageScale="1" pageWidth="827" pageHeight="1169" math="0" shadow="0">
            <root>
                <mxCell id="0"/>
                <mxCell id="1" parent="0"/>
                <mxCell id="iFxmLMx00VJmbijBjZqt-1" value="" style="rounded=0;whiteSpace=wrap;html=1;fillColor=#dae8fc;strokeColor=#6c8ebf;" parent="1" vertex="1">
                    <mxGeometry x="14" y="10" width="800" height="80" as="geometry"/>
                </mxCell>
                <mxCell id="iFxmLMx00VJmbijBjZqt-5" value="User" style="rounded=0;whiteSpace=wrap;html=1;fontFamily=Comic Sans MS;fontSize=22;" parent="1" vertex="1">
                    <mxGeometry x="294" y="190" width="240" height="30" as="geometry"/>
                </mxCell>
                <mxCell id="iFxmLMx00VJmbijBjZqt-6" style="edgeStyle=orthogonalEdgeStyle;rounded=0;orthogonalLoop=1;jettySize=auto;html=1;exitX=0.5;exitY=1;exitDx=0;exitDy=0;fontFamily=Comic Sans MS;fontSize=22;" parent="1" source="iFxmLMx00VJmbijBjZqt-5" target="iFxmLMx00VJmbijBjZqt-5" edge="1">
                    <mxGeometry relative="1" as="geometry"/>
                </mxCell>
                <mxCell id="iFxmLMx00VJmbijBjZqt-8" value="Pass" style="rounded=0;whiteSpace=wrap;html=1;fontFamily=Comic Sans MS;fontSize=22;" parent="1" vertex="1">
                    <mxGeometry x="294" y="230" width="240" height="30" as="geometry"/>
                </mxCell>
                <mxCell id="iFxmLMx00VJmbijBjZqt-9" value="Org" style="rounded=0;whiteSpace=wrap;html=1;fontFamily=Comic Sans MS;fontSize=22;" parent="1" vertex="1">
                    <mxGeometry x="294" y="270" width="240" height="30" as="geometry"/>
                </mxCell>
                <mxCell id="iFxmLMx00VJmbijBjZqt-10" value="submit" style="rounded=1;whiteSpace=wrap;html=1;fontFamily=Comic Sans MS;fontSize=22;" parent="1" vertex="1">
                    <mxGeometry x="369" y="320" width="90" height="20" as="geometry"/>
                </mxCell>
                <mxCell id="cGPQchZzq6ko0bpIKarT-1" value="Registration" style="rounded=0;whiteSpace=wrap;html=1;fontFamily=Comic Sans MS;fontSize=21;" parent="1" vertex="1">
                    <mxGeometry x="320" y="110" width="190" height="60" as="geometry"/>
                </mxCell>
                <mxCell id="ixEPPFTmPfHNJUU5V3Pq-1" value="&lt;font face=&quot;Comic Sans MS&quot; style=&quot;font-size: 22px&quot;&gt;LockD&lt;/font&gt;" style="ellipse;whiteSpace=wrap;html=1;" parent="1" vertex="1">
                    <mxGeometry x="358" y="20" width="112" height="60" as="geometry"/>
                </mxCell>
            </root>
        </mxGraphModel>
    </diagram>
    <diagram id="WlyRgwyTajRq9ZGbiEhB" name="Login">
        <mxGraphModel dx="1422" dy="648" grid="1" gridSize="10" guides="1" tooltips="1" connect="1" arrows="1" fold="1" page="1" pageScale="1" pageWidth="827" pageHeight="1169" math="0" shadow="0">
            <root>
                <mxCell id="0"/>
                <mxCell id="1" parent="0"/>
                <mxCell id="_EciKalN4xmrmumsKnbp-1" value="" style="rounded=0;whiteSpace=wrap;html=1;fillColor=#dae8fc;strokeColor=#6c8ebf;" vertex="1" parent="1">
                    <mxGeometry x="14" y="10" width="800" height="80" as="geometry"/>
                </mxCell>
                <mxCell id="_EciKalN4xmrmumsKnbp-3" value="User" style="rounded=0;whiteSpace=wrap;html=1;fontFamily=Comic Sans MS;fontSize=22;" vertex="1" parent="1">
                    <mxGeometry x="294" y="190" width="240" height="30" as="geometry"/>
                </mxCell>
                <mxCell id="_EciKalN4xmrmumsKnbp-4" style="edgeStyle=orthogonalEdgeStyle;rounded=0;orthogonalLoop=1;jettySize=auto;html=1;exitX=0.5;exitY=1;exitDx=0;exitDy=0;fontFamily=Comic Sans MS;fontSize=22;" edge="1" parent="1" source="_EciKalN4xmrmumsKnbp-3" target="_EciKalN4xmrmumsKnbp-3">
                    <mxGeometry relative="1" as="geometry"/>
                </mxCell>
                <mxCell id="_EciKalN4xmrmumsKnbp-5" value="Pass" style="rounded=0;whiteSpace=wrap;html=1;fontFamily=Comic Sans MS;fontSize=22;" vertex="1" parent="1">
                    <mxGeometry x="294" y="230" width="240" height="30" as="geometry"/>
                </mxCell>
                <mxCell id="_EciKalN4xmrmumsKnbp-7" value="submit" style="rounded=1;whiteSpace=wrap;html=1;fontFamily=Comic Sans MS;fontSize=22;" vertex="1" parent="1">
                    <mxGeometry x="370" y="280" width="90" height="20" as="geometry"/>
                </mxCell>
                <mxCell id="_EciKalN4xmrmumsKnbp-8" value="Login" style="rounded=0;whiteSpace=wrap;html=1;fontFamily=Comic Sans MS;fontSize=21;" vertex="1" parent="1">
                    <mxGeometry x="320" y="110" width="190" height="60" as="geometry"/>
                </mxCell>
                <mxCell id="XmpfRbMQXEsHqUuJrU7K-1" value="&lt;font face=&quot;Comic Sans MS&quot; style=&quot;font-size: 22px&quot;&gt;LockD&lt;/font&gt;" style="ellipse;whiteSpace=wrap;html=1;" vertex="1" parent="1">
                    <mxGeometry x="358" y="20" width="110.5" height="60" as="geometry"/>
                </mxCell>
            </root>
        </mxGraphModel>
    </diagram>
    <diagram id="xs25qcurWbEpnKPQjHIZ" name="User Page">
        <mxGraphModel dx="1224" dy="790" grid="1" gridSize="10" guides="1" tooltips="1" connect="1" arrows="1" fold="1" page="1" pageScale="1" pageWidth="827" pageHeight="1169" math="0" shadow="0">
            <root>
                <mxCell id="0"/>
                <mxCell id="1" parent="0"/>
                <mxCell id="p09vh2Z-uSF_gPJOBGpY-1" value="" style="rounded=0;whiteSpace=wrap;html=1;fillColor=#dae8fc;strokeColor=#6c8ebf;" parent="1" vertex="1">
                    <mxGeometry x="10" y="10" width="804" height="80" as="geometry"/>
                </mxCell>
                <mxCell id="p09vh2Z-uSF_gPJOBGpY-2" value="&lt;font face=&quot;Comic Sans MS&quot; style=&quot;font-size: 22px&quot;&gt;LockD&lt;/font&gt;" style="ellipse;whiteSpace=wrap;html=1;" parent="1" vertex="1">
                    <mxGeometry x="359.75" y="20" width="110.5" height="60" as="geometry"/>
                </mxCell>
                <mxCell id="p09vh2Z-uSF_gPJOBGpY-4" style="edgeStyle=orthogonalEdgeStyle;rounded=0;orthogonalLoop=1;jettySize=auto;html=1;exitX=0.5;exitY=1;exitDx=0;exitDy=0;fontFamily=Comic Sans MS;fontSize=22;" parent="1" edge="1">
                    <mxGeometry relative="1" as="geometry">
                        <mxPoint x="80.5" y="150" as="sourcePoint"/>
                        <mxPoint x="80.5" y="150" as="targetPoint"/>
                    </mxGeometry>
                </mxCell>
                <mxCell id="p09vh2Z-uSF_gPJOBGpY-8" value="Welcome, *username*" style="rounded=0;whiteSpace=wrap;html=1;fontFamily=Comic Sans MS;fontSize=21;" parent="1" vertex="1">
                    <mxGeometry x="280" y="110" width="280" height="40" as="geometry"/>
                </mxCell>
                <mxCell id="p09vh2Z-uSF_gPJOBGpY-14" value="Username" style="rounded=0;whiteSpace=wrap;html=1;fontFamily=Comic Sans MS;fontSize=22;" parent="1" vertex="1">
                    <mxGeometry x="320" y="310" width="200" height="30" as="geometry"/>
                </mxCell>
                <mxCell id="p09vh2Z-uSF_gPJOBGpY-15" style="edgeStyle=orthogonalEdgeStyle;rounded=0;orthogonalLoop=1;jettySize=auto;html=1;exitX=0.5;exitY=1;exitDx=0;exitDy=0;fontFamily=Comic Sans MS;fontSize=22;" parent="1" source="p09vh2Z-uSF_gPJOBGpY-14" target="p09vh2Z-uSF_gPJOBGpY-14" edge="1">
                    <mxGeometry relative="1" as="geometry"/>
                </mxCell>
                <mxCell id="p09vh2Z-uSF_gPJOBGpY-18" value="Pass" style="rounded=0;whiteSpace=wrap;html=1;fontFamily=Comic Sans MS;fontSize=22;" parent="1" vertex="1">
                    <mxGeometry x="320" y="340" width="200" height="30" as="geometry"/>
                </mxCell>
                <mxCell id="p09vh2Z-uSF_gPJOBGpY-19" style="edgeStyle=orthogonalEdgeStyle;rounded=0;orthogonalLoop=1;jettySize=auto;html=1;exitX=0.5;exitY=1;exitDx=0;exitDy=0;fontFamily=Comic Sans MS;fontSize=22;" parent="1" source="p09vh2Z-uSF_gPJOBGpY-18" target="p09vh2Z-uSF_gPJOBGpY-18" edge="1">
                    <mxGeometry relative="1" as="geometry"/>
                </mxCell>
                <mxCell id="LuPIkl0Aikk4Kot8WLBf-1" value="Create New" style="rounded=1;whiteSpace=wrap;html=1;fontFamily=Comic Sans MS;fontSize=21;" parent="1" vertex="1">
                    <mxGeometry x="290" y="160" width="120" height="30" as="geometry"/>
                </mxCell>
                <mxCell id="LuPIkl0Aikk4Kot8WLBf-2" value="Filter By" style="rounded=1;whiteSpace=wrap;html=1;fontFamily=Comic Sans MS;fontSize=21;" parent="1" vertex="1">
                    <mxGeometry x="421" y="160" width="119" height="30" as="geometry"/>
                </mxCell>
                <mxCell id="44Pws2tbRLoMyUoEdBav-13" value="" style="swimlane;startSize=0;fontFamily=Comic Sans MS;fontSize=21;" parent="1" vertex="1">
                    <mxGeometry x="240" y="200" width="360" height="720" as="geometry"/>
                </mxCell>
                <mxCell id="p09vh2Z-uSF_gPJOBGpY-10" value="Company" style="rounded=0;whiteSpace=wrap;html=1;fontFamily=Comic Sans MS;fontSize=22;" parent="44Pws2tbRLoMyUoEdBav-13" vertex="1">
                    <mxGeometry x="80" y="20" width="200" height="90" as="geometry"/>
                </mxCell>
                <mxCell id="p09vh2Z-uSF_gPJOBGpY-11" style="edgeStyle=orthogonalEdgeStyle;rounded=0;orthogonalLoop=1;jettySize=auto;html=1;exitX=0.5;exitY=1;exitDx=0;exitDy=0;fontFamily=Comic Sans MS;fontSize=22;" parent="44Pws2tbRLoMyUoEdBav-13" source="p09vh2Z-uSF_gPJOBGpY-10" target="p09vh2Z-uSF_gPJOBGpY-10" edge="1">
                    <mxGeometry relative="1" as="geometry"/>
                </mxCell>
                <mxCell id="WuvtcXveyWj82wbnrYIF-1" value="Tag" style="rounded=0;whiteSpace=wrap;html=1;fontFamily=Comic Sans MS;fontSize=22;" parent="44Pws2tbRLoMyUoEdBav-13" vertex="1">
                    <mxGeometry x="80" y="170" width="200" height="30" as="geometry"/>
                </mxCell>
                <mxCell id="WuvtcXveyWj82wbnrYIF-2" value="" style="rounded=0;whiteSpace=wrap;html=1;fontFamily=Comic Sans MS;fontSize=21;" parent="44Pws2tbRLoMyUoEdBav-13" vertex="1">
                    <mxGeometry x="250" y="140" width="30" height="30" as="geometry"/>
                </mxCell>
                <mxCell id="WuvtcXveyWj82wbnrYIF-3" value="Username" style="rounded=0;whiteSpace=wrap;html=1;fontFamily=Comic Sans MS;fontSize=22;" parent="44Pws2tbRLoMyUoEdBav-13" vertex="1">
                    <mxGeometry x="80" y="330" width="200" height="30" as="geometry"/>
                </mxCell>
                <mxCell id="WuvtcXveyWj82wbnrYIF-4" style="edgeStyle=orthogonalEdgeStyle;rounded=0;orthogonalLoop=1;jettySize=auto;html=1;exitX=0.5;exitY=1;exitDx=0;exitDy=0;fontFamily=Comic Sans MS;fontSize=22;" parent="44Pws2tbRLoMyUoEdBav-13" source="WuvtcXveyWj82wbnrYIF-3" target="WuvtcXveyWj82wbnrYIF-3" edge="1">
                    <mxGeometry relative="1" as="geometry"/>
                </mxCell>
                <mxCell id="WuvtcXveyWj82wbnrYIF-5" value="Pass" style="rounded=0;whiteSpace=wrap;html=1;fontFamily=Comic Sans MS;fontSize=22;" parent="44Pws2tbRLoMyUoEdBav-13" vertex="1">
                    <mxGeometry x="80" y="360" width="200" height="30" as="geometry"/>
                </mxCell>
                <mxCell id="WuvtcXveyWj82wbnrYIF-6" style="edgeStyle=orthogonalEdgeStyle;rounded=0;orthogonalLoop=1;jettySize=auto;html=1;exitX=0.5;exitY=1;exitDx=0;exitDy=0;fontFamily=Comic Sans MS;fontSize=22;" parent="44Pws2tbRLoMyUoEdBav-13" source="WuvtcXveyWj82wbnrYIF-5" target="WuvtcXveyWj82wbnrYIF-5" edge="1">
                    <mxGeometry relative="1" as="geometry"/>
                </mxCell>
                <mxCell id="WuvtcXveyWj82wbnrYIF-7" value="Company" style="rounded=0;whiteSpace=wrap;html=1;fontFamily=Comic Sans MS;fontSize=22;" parent="44Pws2tbRLoMyUoEdBav-13" vertex="1">
                    <mxGeometry x="80" y="240" width="200" height="90" as="geometry"/>
                </mxCell>
                <mxCell id="WuvtcXveyWj82wbnrYIF-8" style="edgeStyle=orthogonalEdgeStyle;rounded=0;orthogonalLoop=1;jettySize=auto;html=1;exitX=0.5;exitY=1;exitDx=0;exitDy=0;fontFamily=Comic Sans MS;fontSize=22;" parent="44Pws2tbRLoMyUoEdBav-13" source="WuvtcXveyWj82wbnrYIF-7" target="WuvtcXveyWj82wbnrYIF-7" edge="1">
                    <mxGeometry relative="1" as="geometry"/>
                </mxCell>
                <mxCell id="WuvtcXveyWj82wbnrYIF-9" value="Tag" style="rounded=0;whiteSpace=wrap;html=1;fontFamily=Comic Sans MS;fontSize=22;" parent="44Pws2tbRLoMyUoEdBav-13" vertex="1">
                    <mxGeometry x="80" y="390" width="200" height="30" as="geometry"/>
                </mxCell>
                <mxCell id="WuvtcXveyWj82wbnrYIF-10" value="" style="rounded=0;whiteSpace=wrap;html=1;fontFamily=Comic Sans MS;fontSize=21;" parent="44Pws2tbRLoMyUoEdBav-13" vertex="1">
                    <mxGeometry x="250" y="360" width="30" height="30" as="geometry"/>
                </mxCell>
                <mxCell id="WuvtcXveyWj82wbnrYIF-19" value="Username" style="rounded=0;whiteSpace=wrap;html=1;fontFamily=Comic Sans MS;fontSize=22;" parent="44Pws2tbRLoMyUoEdBav-13" vertex="1">
                    <mxGeometry x="80" y="550" width="200" height="30" as="geometry"/>
                </mxCell>
                <mxCell id="WuvtcXveyWj82wbnrYIF-20" style="edgeStyle=orthogonalEdgeStyle;rounded=0;orthogonalLoop=1;jettySize=auto;html=1;exitX=0.5;exitY=1;exitDx=0;exitDy=0;fontFamily=Comic Sans MS;fontSize=22;" parent="44Pws2tbRLoMyUoEdBav-13" source="WuvtcXveyWj82wbnrYIF-19" target="WuvtcXveyWj82wbnrYIF-19" edge="1">
                    <mxGeometry relative="1" as="geometry"/>
                </mxCell>
                <mxCell id="WuvtcXveyWj82wbnrYIF-21" value="Pass" style="rounded=0;whiteSpace=wrap;html=1;fontFamily=Comic Sans MS;fontSize=22;" parent="44Pws2tbRLoMyUoEdBav-13" vertex="1">
                    <mxGeometry x="80" y="580" width="200" height="30" as="geometry"/>
                </mxCell>
                <mxCell id="WuvtcXveyWj82wbnrYIF-22" style="edgeStyle=orthogonalEdgeStyle;rounded=0;orthogonalLoop=1;jettySize=auto;html=1;exitX=0.5;exitY=1;exitDx=0;exitDy=0;fontFamily=Comic Sans MS;fontSize=22;" parent="44Pws2tbRLoMyUoEdBav-13" source="WuvtcXveyWj82wbnrYIF-21" target="WuvtcXveyWj82wbnrYIF-21" edge="1">
                    <mxGeometry relative="1" as="geometry"/>
                </mxCell>
                <mxCell id="WuvtcXveyWj82wbnrYIF-23" value="Company" style="rounded=0;whiteSpace=wrap;html=1;fontFamily=Comic Sans MS;fontSize=22;" parent="44Pws2tbRLoMyUoEdBav-13" vertex="1">
                    <mxGeometry x="80" y="460" width="200" height="90" as="geometry"/>
                </mxCell>
                <mxCell id="WuvtcXveyWj82wbnrYIF-24" style="edgeStyle=orthogonalEdgeStyle;rounded=0;orthogonalLoop=1;jettySize=auto;html=1;exitX=0.5;exitY=1;exitDx=0;exitDy=0;fontFamily=Comic Sans MS;fontSize=22;" parent="44Pws2tbRLoMyUoEdBav-13" source="WuvtcXveyWj82wbnrYIF-23" target="WuvtcXveyWj82wbnrYIF-23" edge="1">
                    <mxGeometry relative="1" as="geometry"/>
                </mxCell>
                <mxCell id="WuvtcXveyWj82wbnrYIF-25" value="Tag" style="rounded=0;whiteSpace=wrap;html=1;fontFamily=Comic Sans MS;fontSize=22;" parent="44Pws2tbRLoMyUoEdBav-13" vertex="1">
                    <mxGeometry x="80" y="610" width="200" height="30" as="geometry"/>
                </mxCell>
                <mxCell id="WuvtcXveyWj82wbnrYIF-26" value="" style="rounded=0;whiteSpace=wrap;html=1;fontFamily=Comic Sans MS;fontSize=21;" parent="44Pws2tbRLoMyUoEdBav-13" vertex="1">
                    <mxGeometry x="250" y="580" width="30" height="30" as="geometry"/>
                </mxCell>
            </root>
        </mxGraphModel>
    </diagram>
    <diagram id="OGzHxZFQO65JarZZebmm" name="Create_New_Password">
        <mxGraphModel dx="1422" dy="648" grid="1" gridSize="10" guides="1" tooltips="1" connect="1" arrows="1" fold="1" page="1" pageScale="1" pageWidth="827" pageHeight="1169" math="0" shadow="0">
            <root>
                <mxCell id="0"/>
                <mxCell id="1" parent="0"/>
                <mxCell id="4GH2tYvx5THlPoEfnKrh-1" value="" style="rounded=0;whiteSpace=wrap;html=1;fillColor=#dae8fc;strokeColor=#6c8ebf;" vertex="1" parent="1">
                    <mxGeometry x="10" y="10" width="804" height="80" as="geometry"/>
                </mxCell>
                <mxCell id="4GH2tYvx5THlPoEfnKrh-2" value="&lt;font face=&quot;Comic Sans MS&quot; style=&quot;font-size: 22px&quot;&gt;LockD&lt;/font&gt;" style="ellipse;whiteSpace=wrap;html=1;" vertex="1" parent="1">
                    <mxGeometry x="359.75" y="20" width="110.5" height="60" as="geometry"/>
                </mxCell>
                <mxCell id="4GH2tYvx5THlPoEfnKrh-3" style="edgeStyle=orthogonalEdgeStyle;rounded=0;orthogonalLoop=1;jettySize=auto;html=1;exitX=0.5;exitY=1;exitDx=0;exitDy=0;fontFamily=Comic Sans MS;fontSize=22;" edge="1" parent="1">
                    <mxGeometry relative="1" as="geometry">
                        <mxPoint x="80.5" y="150" as="sourcePoint"/>
                        <mxPoint x="80.5" y="150" as="targetPoint"/>
                    </mxGeometry>
                </mxCell>
                <mxCell id="4GH2tYvx5THlPoEfnKrh-4" value="Welcome, *username*" style="rounded=0;whiteSpace=wrap;html=1;fontFamily=Comic Sans MS;fontSize=21;" vertex="1" parent="1">
                    <mxGeometry x="280" y="110" width="280" height="40" as="geometry"/>
                </mxCell>
                <mxCell id="4GH2tYvx5THlPoEfnKrh-5" value="Username" style="rounded=0;whiteSpace=wrap;html=1;fontFamily=Comic Sans MS;fontSize=22;" vertex="1" parent="1">
                    <mxGeometry x="320" y="310" width="200" height="30" as="geometry"/>
                </mxCell>
                <mxCell id="4GH2tYvx5THlPoEfnKrh-6" style="edgeStyle=orthogonalEdgeStyle;rounded=0;orthogonalLoop=1;jettySize=auto;html=1;exitX=0.5;exitY=1;exitDx=0;exitDy=0;fontFamily=Comic Sans MS;fontSize=22;" edge="1" parent="1" source="4GH2tYvx5THlPoEfnKrh-5" target="4GH2tYvx5THlPoEfnKrh-5">
                    <mxGeometry relative="1" as="geometry"/>
                </mxCell>
                <mxCell id="4GH2tYvx5THlPoEfnKrh-7" value="Pass" style="rounded=0;whiteSpace=wrap;html=1;fontFamily=Comic Sans MS;fontSize=22;" vertex="1" parent="1">
                    <mxGeometry x="320" y="340" width="200" height="30" as="geometry"/>
                </mxCell>
                <mxCell id="4GH2tYvx5THlPoEfnKrh-8" style="edgeStyle=orthogonalEdgeStyle;rounded=0;orthogonalLoop=1;jettySize=auto;html=1;exitX=0.5;exitY=1;exitDx=0;exitDy=0;fontFamily=Comic Sans MS;fontSize=22;" edge="1" parent="1" source="4GH2tYvx5THlPoEfnKrh-7" target="4GH2tYvx5THlPoEfnKrh-7">
                    <mxGeometry relative="1" as="geometry"/>
                </mxCell>
                <mxCell id="4GH2tYvx5THlPoEfnKrh-10" value="Log Out" style="rounded=1;whiteSpace=wrap;html=1;fontFamily=Comic Sans MS;fontSize=21;" vertex="1" parent="1">
                    <mxGeometry x="360.5" y="160" width="119" height="30" as="geometry"/>
                </mxCell>
                <mxCell id="4GH2tYvx5THlPoEfnKrh-11" value="" style="swimlane;startSize=0;fontFamily=Comic Sans MS;fontSize=21;" vertex="1" parent="1">
                    <mxGeometry x="240" y="200" width="360" height="340" as="geometry"/>
                </mxCell>
                <mxCell id="4GH2tYvx5THlPoEfnKrh-12" value="Company" style="rounded=0;whiteSpace=wrap;html=1;fontFamily=Comic Sans MS;fontSize=22;" vertex="1" parent="4GH2tYvx5THlPoEfnKrh-11">
                    <mxGeometry x="80" y="20" width="200" height="90" as="geometry"/>
                </mxCell>
                <mxCell id="4GH2tYvx5THlPoEfnKrh-13" style="edgeStyle=orthogonalEdgeStyle;rounded=0;orthogonalLoop=1;jettySize=auto;html=1;exitX=0.5;exitY=1;exitDx=0;exitDy=0;fontFamily=Comic Sans MS;fontSize=22;" edge="1" parent="4GH2tYvx5THlPoEfnKrh-11" source="4GH2tYvx5THlPoEfnKrh-12" target="4GH2tYvx5THlPoEfnKrh-12">
                    <mxGeometry relative="1" as="geometry"/>
                </mxCell>
                <mxCell id="4GH2tYvx5THlPoEfnKrh-14" value="Tag" style="rounded=0;whiteSpace=wrap;html=1;fontFamily=Comic Sans MS;fontSize=22;" vertex="1" parent="4GH2tYvx5THlPoEfnKrh-11">
                    <mxGeometry x="80" y="170" width="200" height="30" as="geometry"/>
                </mxCell>
                <mxCell id="4GH2tYvx5THlPoEfnKrh-32" value="Submit" style="rounded=1;whiteSpace=wrap;html=1;fontFamily=Comic Sans MS;fontSize=21;" vertex="1" parent="4GH2tYvx5THlPoEfnKrh-11">
                    <mxGeometry x="120.5" y="290" width="119" height="30" as="geometry"/>
                </mxCell>
                <mxCell id="q3--nfFKBvPNki90pUKq-1" value="Options" style="rounded=0;whiteSpace=wrap;html=1;fontFamily=Comic Sans MS;fontSize=22;" vertex="1" parent="4GH2tYvx5THlPoEfnKrh-11">
                    <mxGeometry x="80" y="220" width="200" height="50" as="geometry"/>
                </mxCell>
            </root>
        </mxGraphModel>
    </diagram>
    <diagram id="qRJVcDbWTXC8OgvyRJmh" name="Edit_Password">
        <mxGraphModel dx="1422" dy="705" grid="1" gridSize="10" guides="1" tooltips="1" connect="1" arrows="1" fold="1" page="1" pageScale="1" pageWidth="827" pageHeight="1169" math="0" shadow="0">
            <root>
                <mxCell id="0"/>
                <mxCell id="1" parent="0"/>
                <mxCell id="3a81B0NAfMmAHds_Oxi8-1" value="" style="rounded=0;whiteSpace=wrap;html=1;fillColor=#dae8fc;strokeColor=#6c8ebf;" vertex="1" parent="1">
                    <mxGeometry x="10" y="10" width="804" height="80" as="geometry"/>
                </mxCell>
                <mxCell id="3a81B0NAfMmAHds_Oxi8-2" value="&lt;font face=&quot;Comic Sans MS&quot; style=&quot;font-size: 22px&quot;&gt;LockD&lt;/font&gt;" style="ellipse;whiteSpace=wrap;html=1;" vertex="1" parent="1">
                    <mxGeometry x="359.75" y="20" width="110.5" height="60" as="geometry"/>
                </mxCell>
                <mxCell id="3a81B0NAfMmAHds_Oxi8-3" style="edgeStyle=orthogonalEdgeStyle;rounded=0;orthogonalLoop=1;jettySize=auto;html=1;exitX=0.5;exitY=1;exitDx=0;exitDy=0;fontFamily=Comic Sans MS;fontSize=22;" edge="1" parent="1">
                    <mxGeometry relative="1" as="geometry">
                        <mxPoint x="80.5" y="150" as="sourcePoint"/>
                        <mxPoint x="80.5" y="150" as="targetPoint"/>
                    </mxGeometry>
                </mxCell>
                <mxCell id="3a81B0NAfMmAHds_Oxi8-4" value="Welcome, *username*" style="rounded=0;whiteSpace=wrap;html=1;fontFamily=Comic Sans MS;fontSize=21;" vertex="1" parent="1">
                    <mxGeometry x="280" y="110" width="280" height="40" as="geometry"/>
                </mxCell>
                <mxCell id="3a81B0NAfMmAHds_Oxi8-5" value="Username" style="rounded=0;whiteSpace=wrap;html=1;fontFamily=Comic Sans MS;fontSize=22;" vertex="1" parent="1">
                    <mxGeometry x="320" y="310" width="200" height="30" as="geometry"/>
                </mxCell>
                <mxCell id="3a81B0NAfMmAHds_Oxi8-6" style="edgeStyle=orthogonalEdgeStyle;rounded=0;orthogonalLoop=1;jettySize=auto;html=1;exitX=0.5;exitY=1;exitDx=0;exitDy=0;fontFamily=Comic Sans MS;fontSize=22;" edge="1" parent="1" source="3a81B0NAfMmAHds_Oxi8-5" target="3a81B0NAfMmAHds_Oxi8-5">
                    <mxGeometry relative="1" as="geometry"/>
                </mxCell>
                <mxCell id="3a81B0NAfMmAHds_Oxi8-7" value="Pass" style="rounded=0;whiteSpace=wrap;html=1;fontFamily=Comic Sans MS;fontSize=22;" vertex="1" parent="1">
                    <mxGeometry x="320" y="340" width="200" height="30" as="geometry"/>
                </mxCell>
                <mxCell id="3a81B0NAfMmAHds_Oxi8-8" style="edgeStyle=orthogonalEdgeStyle;rounded=0;orthogonalLoop=1;jettySize=auto;html=1;exitX=0.5;exitY=1;exitDx=0;exitDy=0;fontFamily=Comic Sans MS;fontSize=22;" edge="1" parent="1" source="3a81B0NAfMmAHds_Oxi8-7" target="3a81B0NAfMmAHds_Oxi8-7">
                    <mxGeometry relative="1" as="geometry"/>
                </mxCell>
                <mxCell id="3a81B0NAfMmAHds_Oxi8-9" value="Log Out" style="rounded=1;whiteSpace=wrap;html=1;fontFamily=Comic Sans MS;fontSize=21;" vertex="1" parent="1">
                    <mxGeometry x="360.5" y="160" width="119" height="30" as="geometry"/>
                </mxCell>
                <mxCell id="3a81B0NAfMmAHds_Oxi8-10" value="" style="swimlane;startSize=0;fontFamily=Comic Sans MS;fontSize=21;" vertex="1" parent="1">
                    <mxGeometry x="240" y="200" width="360" height="270" as="geometry"/>
                </mxCell>
                <mxCell id="3a81B0NAfMmAHds_Oxi8-11" value="Company" style="rounded=0;whiteSpace=wrap;html=1;fontFamily=Comic Sans MS;fontSize=22;" vertex="1" parent="3a81B0NAfMmAHds_Oxi8-10">
                    <mxGeometry x="80" y="20" width="200" height="90" as="geometry"/>
                </mxCell>
                <mxCell id="3a81B0NAfMmAHds_Oxi8-12" style="edgeStyle=orthogonalEdgeStyle;rounded=0;orthogonalLoop=1;jettySize=auto;html=1;exitX=0.5;exitY=1;exitDx=0;exitDy=0;fontFamily=Comic Sans MS;fontSize=22;" edge="1" parent="3a81B0NAfMmAHds_Oxi8-10" source="3a81B0NAfMmAHds_Oxi8-11" target="3a81B0NAfMmAHds_Oxi8-11">
                    <mxGeometry relative="1" as="geometry"/>
                </mxCell>
                <mxCell id="3a81B0NAfMmAHds_Oxi8-13" value="Tag" style="rounded=0;whiteSpace=wrap;html=1;fontFamily=Comic Sans MS;fontSize=22;" vertex="1" parent="3a81B0NAfMmAHds_Oxi8-10">
                    <mxGeometry x="80" y="170" width="200" height="30" as="geometry"/>
                </mxCell>
                <mxCell id="3a81B0NAfMmAHds_Oxi8-14" value="Submit" style="rounded=1;whiteSpace=wrap;html=1;fontFamily=Comic Sans MS;fontSize=21;" vertex="1" parent="3a81B0NAfMmAHds_Oxi8-10">
                    <mxGeometry x="120.5" y="220" width="119" height="30" as="geometry"/>
                </mxCell>
            </root>
        </mxGraphModel>
    </diagram>
    <diagram id="1Zt-V8OC0b4aAfYR1nSi" name="ERD">
        <mxGraphModel dx="1103" dy="609" grid="1" gridSize="10" guides="1" tooltips="1" connect="1" arrows="1" fold="1" page="0" pageScale="1" pageWidth="827" pageHeight="1169" math="0" shadow="0">
            <root>
                <mxCell id="0"/>
                <mxCell id="1" parent="0"/>
                <mxCell id="BjTUC-IhEMKe5PAi5NOE-6" value="Users" style="shape=table;startSize=30;container=1;collapsible=1;childLayout=tableLayout;fixedRows=1;rowLines=0;fontStyle=1;align=center;resizeLast=1;fontFamily=Comic Sans MS;fontSize=21;" parent="1" vertex="1">
                    <mxGeometry x="40" y="40" width="260" height="180" as="geometry"/>
                </mxCell>
                <mxCell id="BjTUC-IhEMKe5PAi5NOE-7" value="" style="shape=tableRow;horizontal=0;startSize=0;swimlaneHead=0;swimlaneBody=0;fillColor=none;collapsible=0;dropTarget=0;points=[[0,0.5],[1,0.5]];portConstraint=eastwest;top=0;left=0;right=0;bottom=1;fontFamily=Comic Sans MS;fontSize=21;" parent="BjTUC-IhEMKe5PAi5NOE-6" vertex="1">
                    <mxGeometry y="30" width="260" height="30" as="geometry"/>
                </mxCell>
                <mxCell id="BjTUC-IhEMKe5PAi5NOE-8" value="PK" style="shape=partialRectangle;connectable=0;fillColor=none;top=0;left=0;bottom=0;right=0;fontStyle=1;overflow=hidden;fontFamily=Comic Sans MS;fontSize=21;" parent="BjTUC-IhEMKe5PAi5NOE-7" vertex="1">
                    <mxGeometry width="30" height="30" as="geometry">
                        <mxRectangle width="30" height="30" as="alternateBounds"/>
                    </mxGeometry>
                </mxCell>
                <mxCell id="BjTUC-IhEMKe5PAi5NOE-9" value="id" style="shape=partialRectangle;connectable=0;fillColor=none;top=0;left=0;bottom=0;right=0;align=left;spacingLeft=6;fontStyle=5;overflow=hidden;fontFamily=Comic Sans MS;fontSize=21;" parent="BjTUC-IhEMKe5PAi5NOE-7" vertex="1">
                    <mxGeometry x="30" width="230" height="30" as="geometry">
                        <mxRectangle width="230" height="30" as="alternateBounds"/>
                    </mxGeometry>
                </mxCell>
                <mxCell id="BjTUC-IhEMKe5PAi5NOE-10" value="" style="shape=tableRow;horizontal=0;startSize=0;swimlaneHead=0;swimlaneBody=0;fillColor=none;collapsible=0;dropTarget=0;points=[[0,0.5],[1,0.5]];portConstraint=eastwest;top=0;left=0;right=0;bottom=0;fontFamily=Comic Sans MS;fontSize=21;" parent="BjTUC-IhEMKe5PAi5NOE-6" vertex="1">
                    <mxGeometry y="60" width="260" height="30" as="geometry"/>
                </mxCell>
                <mxCell id="BjTUC-IhEMKe5PAi5NOE-11" value="" style="shape=partialRectangle;connectable=0;fillColor=none;top=0;left=0;bottom=0;right=0;editable=1;overflow=hidden;fontFamily=Comic Sans MS;fontSize=21;" parent="BjTUC-IhEMKe5PAi5NOE-10" vertex="1">
                    <mxGeometry width="30" height="30" as="geometry">
                        <mxRectangle width="30" height="30" as="alternateBounds"/>
                    </mxGeometry>
                </mxCell>
                <mxCell id="BjTUC-IhEMKe5PAi5NOE-12" value="name" style="shape=partialRectangle;connectable=0;fillColor=none;top=0;left=0;bottom=0;right=0;align=left;spacingLeft=6;overflow=hidden;fontFamily=Comic Sans MS;fontSize=21;" parent="BjTUC-IhEMKe5PAi5NOE-10" vertex="1">
                    <mxGeometry x="30" width="230" height="30" as="geometry">
                        <mxRectangle width="230" height="30" as="alternateBounds"/>
                    </mxGeometry>
                </mxCell>
                <mxCell id="BjTUC-IhEMKe5PAi5NOE-13" value="" style="shape=tableRow;horizontal=0;startSize=0;swimlaneHead=0;swimlaneBody=0;fillColor=none;collapsible=0;dropTarget=0;points=[[0,0.5],[1,0.5]];portConstraint=eastwest;top=0;left=0;right=0;bottom=0;fontFamily=Comic Sans MS;fontSize=21;" parent="BjTUC-IhEMKe5PAi5NOE-6" vertex="1">
                    <mxGeometry y="90" width="260" height="30" as="geometry"/>
                </mxCell>
                <mxCell id="BjTUC-IhEMKe5PAi5NOE-14" value="" style="shape=partialRectangle;connectable=0;fillColor=none;top=0;left=0;bottom=0;right=0;editable=1;overflow=hidden;fontFamily=Comic Sans MS;fontSize=21;" parent="BjTUC-IhEMKe5PAi5NOE-13" vertex="1">
                    <mxGeometry width="30" height="30" as="geometry">
                        <mxRectangle width="30" height="30" as="alternateBounds"/>
                    </mxGeometry>
                </mxCell>
                <mxCell id="BjTUC-IhEMKe5PAi5NOE-15" value="email" style="shape=partialRectangle;connectable=0;fillColor=none;top=0;left=0;bottom=0;right=0;align=left;spacingLeft=6;overflow=hidden;fontFamily=Comic Sans MS;fontSize=21;" parent="BjTUC-IhEMKe5PAi5NOE-13" vertex="1">
                    <mxGeometry x="30" width="230" height="30" as="geometry">
                        <mxRectangle width="230" height="30" as="alternateBounds"/>
                    </mxGeometry>
                </mxCell>
                <mxCell id="BjTUC-IhEMKe5PAi5NOE-16" value="" style="shape=tableRow;horizontal=0;startSize=0;swimlaneHead=0;swimlaneBody=0;fillColor=none;collapsible=0;dropTarget=0;points=[[0,0.5],[1,0.5]];portConstraint=eastwest;top=0;left=0;right=0;bottom=0;fontFamily=Comic Sans MS;fontSize=21;" parent="BjTUC-IhEMKe5PAi5NOE-6" vertex="1">
                    <mxGeometry y="120" width="260" height="30" as="geometry"/>
                </mxCell>
                <mxCell id="BjTUC-IhEMKe5PAi5NOE-17" value="" style="shape=partialRectangle;connectable=0;fillColor=none;top=0;left=0;bottom=0;right=0;editable=1;overflow=hidden;fontFamily=Comic Sans MS;fontSize=21;" parent="BjTUC-IhEMKe5PAi5NOE-16" vertex="1">
                    <mxGeometry width="30" height="30" as="geometry">
                        <mxRectangle width="30" height="30" as="alternateBounds"/>
                    </mxGeometry>
                </mxCell>
                <mxCell id="BjTUC-IhEMKe5PAi5NOE-18" value="user_password" style="shape=partialRectangle;connectable=0;fillColor=none;top=0;left=0;bottom=0;right=0;align=left;spacingLeft=6;overflow=hidden;fontFamily=Comic Sans MS;fontSize=21;" parent="BjTUC-IhEMKe5PAi5NOE-16" vertex="1">
                    <mxGeometry x="30" width="230" height="30" as="geometry">
                        <mxRectangle width="230" height="30" as="alternateBounds"/>
                    </mxGeometry>
                </mxCell>
                <mxCell id="BjTUC-IhEMKe5PAi5NOE-96" value="" style="shape=tableRow;horizontal=0;startSize=0;swimlaneHead=0;swimlaneBody=0;fillColor=none;collapsible=0;dropTarget=0;points=[[0,0.5],[1,0.5]];portConstraint=eastwest;top=0;left=0;right=0;bottom=0;fontFamily=Comic Sans MS;fontSize=21;" parent="BjTUC-IhEMKe5PAi5NOE-6" vertex="1">
                    <mxGeometry y="150" width="260" height="30" as="geometry"/>
                </mxCell>
                <mxCell id="BjTUC-IhEMKe5PAi5NOE-97" value="FK " style="shape=partialRectangle;connectable=0;fillColor=none;top=0;left=0;bottom=0;right=0;editable=1;overflow=hidden;fontFamily=Comic Sans MS;fontSize=21;" parent="BjTUC-IhEMKe5PAi5NOE-96" vertex="1">
                    <mxGeometry width="30" height="30" as="geometry">
                        <mxRectangle width="30" height="30" as="alternateBounds"/>
                    </mxGeometry>
                </mxCell>
                <mxCell id="BjTUC-IhEMKe5PAi5NOE-98" value="organization_id" style="shape=partialRectangle;connectable=0;fillColor=none;top=0;left=0;bottom=0;right=0;align=left;spacingLeft=6;overflow=hidden;fontFamily=Comic Sans MS;fontSize=21;" parent="BjTUC-IhEMKe5PAi5NOE-96" vertex="1">
                    <mxGeometry x="30" width="230" height="30" as="geometry">
                        <mxRectangle width="230" height="30" as="alternateBounds"/>
                    </mxGeometry>
                </mxCell>
                <mxCell id="BjTUC-IhEMKe5PAi5NOE-19" value="Passwords" style="shape=table;startSize=30;container=1;collapsible=1;childLayout=tableLayout;fixedRows=1;rowLines=0;fontStyle=1;align=center;resizeLast=1;fontFamily=Comic Sans MS;fontSize=21;" parent="1" vertex="1">
                    <mxGeometry x="480" y="40" width="250" height="240" as="geometry"/>
                </mxCell>
                <mxCell id="BjTUC-IhEMKe5PAi5NOE-20" value="" style="shape=tableRow;horizontal=0;startSize=0;swimlaneHead=0;swimlaneBody=0;fillColor=none;collapsible=0;dropTarget=0;points=[[0,0.5],[1,0.5]];portConstraint=eastwest;top=0;left=0;right=0;bottom=1;fontFamily=Comic Sans MS;fontSize=21;" parent="BjTUC-IhEMKe5PAi5NOE-19" vertex="1">
                    <mxGeometry y="30" width="250" height="30" as="geometry"/>
                </mxCell>
                <mxCell id="BjTUC-IhEMKe5PAi5NOE-21" value="PK" style="shape=partialRectangle;connectable=0;fillColor=none;top=0;left=0;bottom=0;right=0;fontStyle=1;overflow=hidden;fontFamily=Comic Sans MS;fontSize=21;" parent="BjTUC-IhEMKe5PAi5NOE-20" vertex="1">
                    <mxGeometry width="30" height="30" as="geometry">
                        <mxRectangle width="30" height="30" as="alternateBounds"/>
                    </mxGeometry>
                </mxCell>
                <mxCell id="BjTUC-IhEMKe5PAi5NOE-22" value="id" style="shape=partialRectangle;connectable=0;fillColor=none;top=0;left=0;bottom=0;right=0;align=left;spacingLeft=6;fontStyle=5;overflow=hidden;fontFamily=Comic Sans MS;fontSize=21;" parent="BjTUC-IhEMKe5PAi5NOE-20" vertex="1">
                    <mxGeometry x="30" width="220" height="30" as="geometry">
                        <mxRectangle width="220" height="30" as="alternateBounds"/>
                    </mxGeometry>
                </mxCell>
                <mxCell id="BjTUC-IhEMKe5PAi5NOE-23" value="" style="shape=tableRow;horizontal=0;startSize=0;swimlaneHead=0;swimlaneBody=0;fillColor=none;collapsible=0;dropTarget=0;points=[[0,0.5],[1,0.5]];portConstraint=eastwest;top=0;left=0;right=0;bottom=0;fontFamily=Comic Sans MS;fontSize=21;" parent="BjTUC-IhEMKe5PAi5NOE-19" vertex="1">
                    <mxGeometry y="60" width="250" height="30" as="geometry"/>
                </mxCell>
                <mxCell id="BjTUC-IhEMKe5PAi5NOE-24" value="FK" style="shape=partialRectangle;connectable=0;fillColor=none;top=0;left=0;bottom=0;right=0;editable=1;overflow=hidden;fontFamily=Comic Sans MS;fontSize=21;" parent="BjTUC-IhEMKe5PAi5NOE-23" vertex="1">
                    <mxGeometry width="30" height="30" as="geometry">
                        <mxRectangle width="30" height="30" as="alternateBounds"/>
                    </mxGeometry>
                </mxCell>
                <mxCell id="BjTUC-IhEMKe5PAi5NOE-25" value="user_id" style="shape=partialRectangle;connectable=0;fillColor=none;top=0;left=0;bottom=0;right=0;align=left;spacingLeft=6;overflow=hidden;fontFamily=Comic Sans MS;fontSize=21;" parent="BjTUC-IhEMKe5PAi5NOE-23" vertex="1">
                    <mxGeometry x="30" width="220" height="30" as="geometry">
                        <mxRectangle width="220" height="30" as="alternateBounds"/>
                    </mxGeometry>
                </mxCell>
                <mxCell id="BjTUC-IhEMKe5PAi5NOE-26" value="" style="shape=tableRow;horizontal=0;startSize=0;swimlaneHead=0;swimlaneBody=0;fillColor=none;collapsible=0;dropTarget=0;points=[[0,0.5],[1,0.5]];portConstraint=eastwest;top=0;left=0;right=0;bottom=0;fontFamily=Comic Sans MS;fontSize=21;" parent="BjTUC-IhEMKe5PAi5NOE-19" vertex="1">
                    <mxGeometry y="90" width="250" height="30" as="geometry"/>
                </mxCell>
                <mxCell id="BjTUC-IhEMKe5PAi5NOE-27" value="FK" style="shape=partialRectangle;connectable=0;fillColor=none;top=0;left=0;bottom=0;right=0;editable=1;overflow=hidden;fontFamily=Comic Sans MS;fontSize=21;" parent="BjTUC-IhEMKe5PAi5NOE-26" vertex="1">
                    <mxGeometry width="30" height="30" as="geometry">
                        <mxRectangle width="30" height="30" as="alternateBounds"/>
                    </mxGeometry>
                </mxCell>
                <mxCell id="BjTUC-IhEMKe5PAi5NOE-28" value="category_id" style="shape=partialRectangle;connectable=0;fillColor=none;top=0;left=0;bottom=0;right=0;align=left;spacingLeft=6;overflow=hidden;fontFamily=Comic Sans MS;fontSize=21;" parent="BjTUC-IhEMKe5PAi5NOE-26" vertex="1">
                    <mxGeometry x="30" width="220" height="30" as="geometry">
                        <mxRectangle width="220" height="30" as="alternateBounds"/>
                    </mxGeometry>
                </mxCell>
                <mxCell id="BjTUC-IhEMKe5PAi5NOE-29" value="" style="shape=tableRow;horizontal=0;startSize=0;swimlaneHead=0;swimlaneBody=0;fillColor=none;collapsible=0;dropTarget=0;points=[[0,0.5],[1,0.5]];portConstraint=eastwest;top=0;left=0;right=0;bottom=0;fontFamily=Comic Sans MS;fontSize=21;" parent="BjTUC-IhEMKe5PAi5NOE-19" vertex="1">
                    <mxGeometry y="120" width="250" height="30" as="geometry"/>
                </mxCell>
                <mxCell id="BjTUC-IhEMKe5PAi5NOE-30" value="" style="shape=partialRectangle;connectable=0;fillColor=none;top=0;left=0;bottom=0;right=0;editable=1;overflow=hidden;fontFamily=Comic Sans MS;fontSize=21;" parent="BjTUC-IhEMKe5PAi5NOE-29" vertex="1">
                    <mxGeometry width="30" height="30" as="geometry">
                        <mxRectangle width="30" height="30" as="alternateBounds"/>
                    </mxGeometry>
                </mxCell>
                <mxCell id="BjTUC-IhEMKe5PAi5NOE-31" value="password" style="shape=partialRectangle;connectable=0;fillColor=none;top=0;left=0;bottom=0;right=0;align=left;spacingLeft=6;overflow=hidden;fontFamily=Comic Sans MS;fontSize=21;" parent="BjTUC-IhEMKe5PAi5NOE-29" vertex="1">
                    <mxGeometry x="30" width="220" height="30" as="geometry">
                        <mxRectangle width="220" height="30" as="alternateBounds"/>
                    </mxGeometry>
                </mxCell>
                <mxCell id="BjTUC-IhEMKe5PAi5NOE-35" value="" style="shape=tableRow;horizontal=0;startSize=0;swimlaneHead=0;swimlaneBody=0;fillColor=none;collapsible=0;dropTarget=0;points=[[0,0.5],[1,0.5]];portConstraint=eastwest;top=0;left=0;right=0;bottom=0;fontFamily=Comic Sans MS;fontSize=21;" parent="BjTUC-IhEMKe5PAi5NOE-19" vertex="1">
                    <mxGeometry y="150" width="250" height="30" as="geometry"/>
                </mxCell>
                <mxCell id="BjTUC-IhEMKe5PAi5NOE-36" value="" style="shape=partialRectangle;connectable=0;fillColor=none;top=0;left=0;bottom=0;right=0;editable=1;overflow=hidden;fontFamily=Comic Sans MS;fontSize=21;" parent="BjTUC-IhEMKe5PAi5NOE-35" vertex="1">
                    <mxGeometry width="30" height="30" as="geometry">
                        <mxRectangle width="30" height="30" as="alternateBounds"/>
                    </mxGeometry>
                </mxCell>
                <mxCell id="BjTUC-IhEMKe5PAi5NOE-37" value="website" style="shape=partialRectangle;connectable=0;fillColor=none;top=0;left=0;bottom=0;right=0;align=left;spacingLeft=6;overflow=hidden;fontFamily=Comic Sans MS;fontSize=21;" parent="BjTUC-IhEMKe5PAi5NOE-35" vertex="1">
                    <mxGeometry x="30" width="220" height="30" as="geometry">
                        <mxRectangle width="220" height="30" as="alternateBounds"/>
                    </mxGeometry>
                </mxCell>
                <mxCell id="BjTUC-IhEMKe5PAi5NOE-38" value="" style="shape=tableRow;horizontal=0;startSize=0;swimlaneHead=0;swimlaneBody=0;fillColor=none;collapsible=0;dropTarget=0;points=[[0,0.5],[1,0.5]];portConstraint=eastwest;top=0;left=0;right=0;bottom=0;fontFamily=Comic Sans MS;fontSize=21;" parent="BjTUC-IhEMKe5PAi5NOE-19" vertex="1">
                    <mxGeometry y="180" width="250" height="30" as="geometry"/>
                </mxCell>
                <mxCell id="BjTUC-IhEMKe5PAi5NOE-39" value="" style="shape=partialRectangle;connectable=0;fillColor=none;top=0;left=0;bottom=0;right=0;editable=1;overflow=hidden;fontFamily=Comic Sans MS;fontSize=21;" parent="BjTUC-IhEMKe5PAi5NOE-38" vertex="1">
                    <mxGeometry width="30" height="30" as="geometry">
                        <mxRectangle width="30" height="30" as="alternateBounds"/>
                    </mxGeometry>
                </mxCell>
                <mxCell id="BjTUC-IhEMKe5PAi5NOE-40" value="username" style="shape=partialRectangle;connectable=0;fillColor=none;top=0;left=0;bottom=0;right=0;align=left;spacingLeft=6;overflow=hidden;fontFamily=Comic Sans MS;fontSize=21;" parent="BjTUC-IhEMKe5PAi5NOE-38" vertex="1">
                    <mxGeometry x="30" width="220" height="30" as="geometry">
                        <mxRectangle width="220" height="30" as="alternateBounds"/>
                    </mxGeometry>
                </mxCell>
                <mxCell id="BjTUC-IhEMKe5PAi5NOE-41" style="shape=tableRow;horizontal=0;startSize=0;swimlaneHead=0;swimlaneBody=0;fillColor=none;collapsible=0;dropTarget=0;points=[[0,0.5],[1,0.5]];portConstraint=eastwest;top=0;left=0;right=0;bottom=0;fontFamily=Comic Sans MS;fontSize=21;" parent="BjTUC-IhEMKe5PAi5NOE-19" vertex="1">
                    <mxGeometry y="210" width="250" height="30" as="geometry"/>
                </mxCell>
                <mxCell id="BjTUC-IhEMKe5PAi5NOE-42" value="FK " style="shape=partialRectangle;connectable=0;fillColor=none;top=0;left=0;bottom=0;right=0;editable=1;overflow=hidden;fontFamily=Comic Sans MS;fontSize=21;" parent="BjTUC-IhEMKe5PAi5NOE-41" vertex="1">
                    <mxGeometry width="30" height="30" as="geometry">
                        <mxRectangle width="30" height="30" as="alternateBounds"/>
                    </mxGeometry>
                </mxCell>
                <mxCell id="BjTUC-IhEMKe5PAi5NOE-43" value="organization_id" style="shape=partialRectangle;connectable=0;fillColor=none;top=0;left=0;bottom=0;right=0;align=left;spacingLeft=6;overflow=hidden;fontFamily=Comic Sans MS;fontSize=21;" parent="BjTUC-IhEMKe5PAi5NOE-41" vertex="1">
                    <mxGeometry x="30" width="220" height="30" as="geometry">
                        <mxRectangle width="220" height="30" as="alternateBounds"/>
                    </mxGeometry>
                </mxCell>
                <mxCell id="BjTUC-IhEMKe5PAi5NOE-47" value="Categories" style="shape=table;startSize=30;container=1;collapsible=1;childLayout=tableLayout;fixedRows=1;rowLines=0;fontStyle=1;align=center;resizeLast=1;fontFamily=Comic Sans MS;fontSize=21;" parent="1" vertex="1">
                    <mxGeometry x="40" y="290" width="260" height="270" as="geometry"/>
                </mxCell>
                <mxCell id="BjTUC-IhEMKe5PAi5NOE-48" value="" style="shape=tableRow;horizontal=0;startSize=0;swimlaneHead=0;swimlaneBody=0;fillColor=none;collapsible=0;dropTarget=0;points=[[0,0.5],[1,0.5]];portConstraint=eastwest;top=0;left=0;right=0;bottom=1;fontFamily=Comic Sans MS;fontSize=21;" parent="BjTUC-IhEMKe5PAi5NOE-47" vertex="1">
                    <mxGeometry y="30" width="260" height="30" as="geometry"/>
                </mxCell>
                <mxCell id="BjTUC-IhEMKe5PAi5NOE-49" value="PK" style="shape=partialRectangle;connectable=0;fillColor=none;top=0;left=0;bottom=0;right=0;fontStyle=1;overflow=hidden;fontFamily=Comic Sans MS;fontSize=21;" parent="BjTUC-IhEMKe5PAi5NOE-48" vertex="1">
                    <mxGeometry width="30" height="30" as="geometry">
                        <mxRectangle width="30" height="30" as="alternateBounds"/>
                    </mxGeometry>
                </mxCell>
                <mxCell id="BjTUC-IhEMKe5PAi5NOE-50" value="id" style="shape=partialRectangle;connectable=0;fillColor=none;top=0;left=0;bottom=0;right=0;align=left;spacingLeft=6;fontStyle=5;overflow=hidden;fontFamily=Comic Sans MS;fontSize=21;" parent="BjTUC-IhEMKe5PAi5NOE-48" vertex="1">
                    <mxGeometry x="30" width="230" height="30" as="geometry">
                        <mxRectangle width="230" height="30" as="alternateBounds"/>
                    </mxGeometry>
                </mxCell>
                <mxCell id="BjTUC-IhEMKe5PAi5NOE-88" value="" style="shape=tableRow;horizontal=0;startSize=0;swimlaneHead=0;swimlaneBody=0;fillColor=none;collapsible=0;dropTarget=0;points=[[0,0.5],[1,0.5]];portConstraint=eastwest;top=0;left=0;right=0;bottom=0;fontFamily=Comic Sans MS;fontSize=21;" parent="BjTUC-IhEMKe5PAi5NOE-47" vertex="1">
                    <mxGeometry y="60" width="260" height="30" as="geometry"/>
                </mxCell>
                <mxCell id="BjTUC-IhEMKe5PAi5NOE-89" value="FK" style="shape=partialRectangle;connectable=0;fillColor=none;top=0;left=0;bottom=0;right=0;editable=1;overflow=hidden;fontFamily=Comic Sans MS;fontSize=21;" parent="BjTUC-IhEMKe5PAi5NOE-88" vertex="1">
                    <mxGeometry width="30" height="30" as="geometry">
                        <mxRectangle width="30" height="30" as="alternateBounds"/>
                    </mxGeometry>
                </mxCell>
                <mxCell id="BjTUC-IhEMKe5PAi5NOE-90" value="password_id" style="shape=partialRectangle;connectable=0;fillColor=none;top=0;left=0;bottom=0;right=0;align=left;spacingLeft=6;overflow=hidden;fontFamily=Comic Sans MS;fontSize=21;" parent="BjTUC-IhEMKe5PAi5NOE-88" vertex="1">
                    <mxGeometry x="30" width="230" height="30" as="geometry">
                        <mxRectangle width="230" height="30" as="alternateBounds"/>
                    </mxGeometry>
                </mxCell>
                <mxCell id="BjTUC-IhEMKe5PAi5NOE-51" value="" style="shape=tableRow;horizontal=0;startSize=0;swimlaneHead=0;swimlaneBody=0;fillColor=none;collapsible=0;dropTarget=0;points=[[0,0.5],[1,0.5]];portConstraint=eastwest;top=0;left=0;right=0;bottom=0;fontFamily=Comic Sans MS;fontSize=21;" parent="BjTUC-IhEMKe5PAi5NOE-47" vertex="1">
                    <mxGeometry y="90" width="260" height="30" as="geometry"/>
                </mxCell>
                <mxCell id="BjTUC-IhEMKe5PAi5NOE-52" value="" style="shape=partialRectangle;connectable=0;fillColor=none;top=0;left=0;bottom=0;right=0;editable=1;overflow=hidden;fontFamily=Comic Sans MS;fontSize=21;" parent="BjTUC-IhEMKe5PAi5NOE-51" vertex="1">
                    <mxGeometry width="30" height="30" as="geometry">
                        <mxRectangle width="30" height="30" as="alternateBounds"/>
                    </mxGeometry>
                </mxCell>
                <mxCell id="BjTUC-IhEMKe5PAi5NOE-53" value="social" style="shape=partialRectangle;connectable=0;fillColor=none;top=0;left=0;bottom=0;right=0;align=left;spacingLeft=6;overflow=hidden;fontFamily=Comic Sans MS;fontSize=21;" parent="BjTUC-IhEMKe5PAi5NOE-51" vertex="1">
                    <mxGeometry x="30" width="230" height="30" as="geometry">
                        <mxRectangle width="230" height="30" as="alternateBounds"/>
                    </mxGeometry>
                </mxCell>
                <mxCell id="BjTUC-IhEMKe5PAi5NOE-54" value="" style="shape=tableRow;horizontal=0;startSize=0;swimlaneHead=0;swimlaneBody=0;fillColor=none;collapsible=0;dropTarget=0;points=[[0,0.5],[1,0.5]];portConstraint=eastwest;top=0;left=0;right=0;bottom=0;fontFamily=Comic Sans MS;fontSize=21;" parent="BjTUC-IhEMKe5PAi5NOE-47" vertex="1">
                    <mxGeometry y="120" width="260" height="30" as="geometry"/>
                </mxCell>
                <mxCell id="BjTUC-IhEMKe5PAi5NOE-55" value="" style="shape=partialRectangle;connectable=0;fillColor=none;top=0;left=0;bottom=0;right=0;editable=1;overflow=hidden;fontFamily=Comic Sans MS;fontSize=21;" parent="BjTUC-IhEMKe5PAi5NOE-54" vertex="1">
                    <mxGeometry width="30" height="30" as="geometry">
                        <mxRectangle width="30" height="30" as="alternateBounds"/>
                    </mxGeometry>
                </mxCell>
                <mxCell id="BjTUC-IhEMKe5PAi5NOE-56" value="entertainment" style="shape=partialRectangle;connectable=0;fillColor=none;top=0;left=0;bottom=0;right=0;align=left;spacingLeft=6;overflow=hidden;fontFamily=Comic Sans MS;fontSize=21;" parent="BjTUC-IhEMKe5PAi5NOE-54" vertex="1">
                    <mxGeometry x="30" width="230" height="30" as="geometry">
                        <mxRectangle width="230" height="30" as="alternateBounds"/>
                    </mxGeometry>
                </mxCell>
                <mxCell id="BjTUC-IhEMKe5PAi5NOE-57" value="" style="shape=tableRow;horizontal=0;startSize=0;swimlaneHead=0;swimlaneBody=0;fillColor=none;collapsible=0;dropTarget=0;points=[[0,0.5],[1,0.5]];portConstraint=eastwest;top=0;left=0;right=0;bottom=0;fontFamily=Comic Sans MS;fontSize=21;" parent="BjTUC-IhEMKe5PAi5NOE-47" vertex="1">
                    <mxGeometry y="150" width="260" height="30" as="geometry"/>
                </mxCell>
                <mxCell id="BjTUC-IhEMKe5PAi5NOE-58" value="" style="shape=partialRectangle;connectable=0;fillColor=none;top=0;left=0;bottom=0;right=0;editable=1;overflow=hidden;fontFamily=Comic Sans MS;fontSize=21;" parent="BjTUC-IhEMKe5PAi5NOE-57" vertex="1">
                    <mxGeometry width="30" height="30" as="geometry">
                        <mxRectangle width="30" height="30" as="alternateBounds"/>
                    </mxGeometry>
                </mxCell>
                <mxCell id="BjTUC-IhEMKe5PAi5NOE-59" value="productivity " style="shape=partialRectangle;connectable=0;fillColor=none;top=0;left=0;bottom=0;right=0;align=left;spacingLeft=6;overflow=hidden;fontFamily=Comic Sans MS;fontSize=21;" parent="BjTUC-IhEMKe5PAi5NOE-57" vertex="1">
                    <mxGeometry x="30" width="230" height="30" as="geometry">
                        <mxRectangle width="230" height="30" as="alternateBounds"/>
                    </mxGeometry>
                </mxCell>
                <mxCell id="BjTUC-IhEMKe5PAi5NOE-60" value="" style="shape=tableRow;horizontal=0;startSize=0;swimlaneHead=0;swimlaneBody=0;fillColor=none;collapsible=0;dropTarget=0;points=[[0,0.5],[1,0.5]];portConstraint=eastwest;top=0;left=0;right=0;bottom=0;fontFamily=Comic Sans MS;fontSize=21;" parent="BjTUC-IhEMKe5PAi5NOE-47" vertex="1">
                    <mxGeometry y="180" width="260" height="30" as="geometry"/>
                </mxCell>
                <mxCell id="BjTUC-IhEMKe5PAi5NOE-61" value="" style="shape=partialRectangle;connectable=0;fillColor=none;top=0;left=0;bottom=0;right=0;editable=1;overflow=hidden;fontFamily=Comic Sans MS;fontSize=21;" parent="BjTUC-IhEMKe5PAi5NOE-60" vertex="1">
                    <mxGeometry width="30" height="30" as="geometry">
                        <mxRectangle width="30" height="30" as="alternateBounds"/>
                    </mxGeometry>
                </mxCell>
                <mxCell id="BjTUC-IhEMKe5PAi5NOE-62" value="banking" style="shape=partialRectangle;connectable=0;fillColor=none;top=0;left=0;bottom=0;right=0;align=left;spacingLeft=6;overflow=hidden;fontFamily=Comic Sans MS;fontSize=21;" parent="BjTUC-IhEMKe5PAi5NOE-60" vertex="1">
                    <mxGeometry x="30" width="230" height="30" as="geometry">
                        <mxRectangle width="230" height="30" as="alternateBounds"/>
                    </mxGeometry>
                </mxCell>
                <mxCell id="BjTUC-IhEMKe5PAi5NOE-63" value="" style="shape=tableRow;horizontal=0;startSize=0;swimlaneHead=0;swimlaneBody=0;fillColor=none;collapsible=0;dropTarget=0;points=[[0,0.5],[1,0.5]];portConstraint=eastwest;top=0;left=0;right=0;bottom=0;fontFamily=Comic Sans MS;fontSize=21;" parent="BjTUC-IhEMKe5PAi5NOE-47" vertex="1">
                    <mxGeometry y="210" width="260" height="30" as="geometry"/>
                </mxCell>
                <mxCell id="BjTUC-IhEMKe5PAi5NOE-64" value="" style="shape=partialRectangle;connectable=0;fillColor=none;top=0;left=0;bottom=0;right=0;editable=1;overflow=hidden;fontFamily=Comic Sans MS;fontSize=21;" parent="BjTUC-IhEMKe5PAi5NOE-63" vertex="1">
                    <mxGeometry width="30" height="30" as="geometry">
                        <mxRectangle width="30" height="30" as="alternateBounds"/>
                    </mxGeometry>
                </mxCell>
                <mxCell id="BjTUC-IhEMKe5PAi5NOE-65" value="health_wellness" style="shape=partialRectangle;connectable=0;fillColor=none;top=0;left=0;bottom=0;right=0;align=left;spacingLeft=6;overflow=hidden;fontFamily=Comic Sans MS;fontSize=21;" parent="BjTUC-IhEMKe5PAi5NOE-63" vertex="1">
                    <mxGeometry x="30" width="230" height="30" as="geometry">
                        <mxRectangle width="230" height="30" as="alternateBounds"/>
                    </mxGeometry>
                </mxCell>
                <mxCell id="BjTUC-IhEMKe5PAi5NOE-66" value="" style="shape=tableRow;horizontal=0;startSize=0;swimlaneHead=0;swimlaneBody=0;fillColor=none;collapsible=0;dropTarget=0;points=[[0,0.5],[1,0.5]];portConstraint=eastwest;top=0;left=0;right=0;bottom=0;fontFamily=Comic Sans MS;fontSize=21;" parent="BjTUC-IhEMKe5PAi5NOE-47" vertex="1">
                    <mxGeometry y="240" width="260" height="30" as="geometry"/>
                </mxCell>
                <mxCell id="BjTUC-IhEMKe5PAi5NOE-67" value="" style="shape=partialRectangle;connectable=0;fillColor=none;top=0;left=0;bottom=0;right=0;editable=1;overflow=hidden;fontFamily=Comic Sans MS;fontSize=21;" parent="BjTUC-IhEMKe5PAi5NOE-66" vertex="1">
                    <mxGeometry width="30" height="30" as="geometry">
                        <mxRectangle width="30" height="30" as="alternateBounds"/>
                    </mxGeometry>
                </mxCell>
                <mxCell id="BjTUC-IhEMKe5PAi5NOE-68" value="misc" style="shape=partialRectangle;connectable=0;fillColor=none;top=0;left=0;bottom=0;right=0;align=left;spacingLeft=6;overflow=hidden;fontFamily=Comic Sans MS;fontSize=21;" parent="BjTUC-IhEMKe5PAi5NOE-66" vertex="1">
                    <mxGeometry x="30" width="230" height="30" as="geometry">
                        <mxRectangle width="230" height="30" as="alternateBounds"/>
                    </mxGeometry>
                </mxCell>
                <mxCell id="BjTUC-IhEMKe5PAi5NOE-69" value="Organizations" style="shape=table;startSize=30;container=1;collapsible=1;childLayout=tableLayout;fixedRows=1;rowLines=0;fontStyle=1;align=center;resizeLast=1;fontFamily=Comic Sans MS;fontSize=21;" parent="1" vertex="1">
                    <mxGeometry x="480" y="380" width="250" height="180" as="geometry"/>
                </mxCell>
                <mxCell id="BjTUC-IhEMKe5PAi5NOE-70" value="" style="shape=tableRow;horizontal=0;startSize=0;swimlaneHead=0;swimlaneBody=0;fillColor=none;collapsible=0;dropTarget=0;points=[[0,0.5],[1,0.5]];portConstraint=eastwest;top=0;left=0;right=0;bottom=1;fontFamily=Comic Sans MS;fontSize=21;" parent="BjTUC-IhEMKe5PAi5NOE-69" vertex="1">
                    <mxGeometry y="30" width="250" height="30" as="geometry"/>
                </mxCell>
                <mxCell id="BjTUC-IhEMKe5PAi5NOE-71" value="PK" style="shape=partialRectangle;connectable=0;fillColor=none;top=0;left=0;bottom=0;right=0;fontStyle=1;overflow=hidden;fontFamily=Comic Sans MS;fontSize=21;" parent="BjTUC-IhEMKe5PAi5NOE-70" vertex="1">
                    <mxGeometry width="30" height="30" as="geometry">
                        <mxRectangle width="30" height="30" as="alternateBounds"/>
                    </mxGeometry>
                </mxCell>
                <mxCell id="BjTUC-IhEMKe5PAi5NOE-72" value="id" style="shape=partialRectangle;connectable=0;fillColor=none;top=0;left=0;bottom=0;right=0;align=left;spacingLeft=6;fontStyle=5;overflow=hidden;fontFamily=Comic Sans MS;fontSize=21;" parent="BjTUC-IhEMKe5PAi5NOE-70" vertex="1">
                    <mxGeometry x="30" width="220" height="30" as="geometry">
                        <mxRectangle width="220" height="30" as="alternateBounds"/>
                    </mxGeometry>
                </mxCell>
                <mxCell id="BjTUC-IhEMKe5PAi5NOE-73" value="" style="shape=tableRow;horizontal=0;startSize=0;swimlaneHead=0;swimlaneBody=0;fillColor=none;collapsible=0;dropTarget=0;points=[[0,0.5],[1,0.5]];portConstraint=eastwest;top=0;left=0;right=0;bottom=0;fontFamily=Comic Sans MS;fontSize=21;" parent="BjTUC-IhEMKe5PAi5NOE-69" vertex="1">
                    <mxGeometry y="60" width="250" height="30" as="geometry"/>
                </mxCell>
                <mxCell id="BjTUC-IhEMKe5PAi5NOE-74" value="" style="shape=partialRectangle;connectable=0;fillColor=none;top=0;left=0;bottom=0;right=0;editable=1;overflow=hidden;fontFamily=Comic Sans MS;fontSize=21;" parent="BjTUC-IhEMKe5PAi5NOE-73" vertex="1">
                    <mxGeometry width="30" height="30" as="geometry">
                        <mxRectangle width="30" height="30" as="alternateBounds"/>
                    </mxGeometry>
                </mxCell>
                <mxCell id="BjTUC-IhEMKe5PAi5NOE-75" value="" style="shape=partialRectangle;connectable=0;fillColor=none;top=0;left=0;bottom=0;right=0;align=left;spacingLeft=6;overflow=hidden;fontFamily=Comic Sans MS;fontSize=21;" parent="BjTUC-IhEMKe5PAi5NOE-73" vertex="1">
                    <mxGeometry x="30" width="220" height="30" as="geometry">
                        <mxRectangle width="220" height="30" as="alternateBounds"/>
                    </mxGeometry>
                </mxCell>
                <mxCell id="BjTUC-IhEMKe5PAi5NOE-76" value="" style="shape=tableRow;horizontal=0;startSize=0;swimlaneHead=0;swimlaneBody=0;fillColor=none;collapsible=0;dropTarget=0;points=[[0,0.5],[1,0.5]];portConstraint=eastwest;top=0;left=0;right=0;bottom=0;fontFamily=Comic Sans MS;fontSize=21;" parent="BjTUC-IhEMKe5PAi5NOE-69" vertex="1">
                    <mxGeometry y="90" width="250" height="30" as="geometry"/>
                </mxCell>
                <mxCell id="BjTUC-IhEMKe5PAi5NOE-77" value="" style="shape=partialRectangle;connectable=0;fillColor=none;top=0;left=0;bottom=0;right=0;editable=1;overflow=hidden;fontFamily=Comic Sans MS;fontSize=21;" parent="BjTUC-IhEMKe5PAi5NOE-76" vertex="1">
                    <mxGeometry width="30" height="30" as="geometry">
                        <mxRectangle width="30" height="30" as="alternateBounds"/>
                    </mxGeometry>
                </mxCell>
                <mxCell id="BjTUC-IhEMKe5PAi5NOE-78" value="" style="shape=partialRectangle;connectable=0;fillColor=none;top=0;left=0;bottom=0;right=0;align=left;spacingLeft=6;overflow=hidden;fontFamily=Comic Sans MS;fontSize=21;" parent="BjTUC-IhEMKe5PAi5NOE-76" vertex="1">
                    <mxGeometry x="30" width="220" height="30" as="geometry">
                        <mxRectangle width="220" height="30" as="alternateBounds"/>
                    </mxGeometry>
                </mxCell>
                <mxCell id="BjTUC-IhEMKe5PAi5NOE-79" value="" style="shape=tableRow;horizontal=0;startSize=0;swimlaneHead=0;swimlaneBody=0;fillColor=none;collapsible=0;dropTarget=0;points=[[0,0.5],[1,0.5]];portConstraint=eastwest;top=0;left=0;right=0;bottom=0;fontFamily=Comic Sans MS;fontSize=21;" parent="BjTUC-IhEMKe5PAi5NOE-69" vertex="1">
                    <mxGeometry y="120" width="250" height="30" as="geometry"/>
                </mxCell>
                <mxCell id="BjTUC-IhEMKe5PAi5NOE-80" value="FK" style="shape=partialRectangle;connectable=0;fillColor=none;top=0;left=0;bottom=0;right=0;editable=1;overflow=hidden;fontFamily=Comic Sans MS;fontSize=21;" parent="BjTUC-IhEMKe5PAi5NOE-79" vertex="1">
                    <mxGeometry width="30" height="30" as="geometry">
                        <mxRectangle width="30" height="30" as="alternateBounds"/>
                    </mxGeometry>
                </mxCell>
                <mxCell id="BjTUC-IhEMKe5PAi5NOE-81" value="admin_id" style="shape=partialRectangle;connectable=0;fillColor=none;top=0;left=0;bottom=0;right=0;align=left;spacingLeft=6;overflow=hidden;fontFamily=Comic Sans MS;fontSize=21;" parent="BjTUC-IhEMKe5PAi5NOE-79" vertex="1">
                    <mxGeometry x="30" width="220" height="30" as="geometry">
                        <mxRectangle width="220" height="30" as="alternateBounds"/>
                    </mxGeometry>
                </mxCell>
                <mxCell id="BjTUC-IhEMKe5PAi5NOE-85" value="" style="shape=tableRow;horizontal=0;startSize=0;swimlaneHead=0;swimlaneBody=0;fillColor=none;collapsible=0;dropTarget=0;points=[[0,0.5],[1,0.5]];portConstraint=eastwest;top=0;left=0;right=0;bottom=0;fontFamily=Comic Sans MS;fontSize=21;" parent="BjTUC-IhEMKe5PAi5NOE-69" vertex="1">
                    <mxGeometry y="150" width="250" height="30" as="geometry"/>
                </mxCell>
                <mxCell id="BjTUC-IhEMKe5PAi5NOE-86" value="" style="shape=partialRectangle;connectable=0;fillColor=none;top=0;left=0;bottom=0;right=0;editable=1;overflow=hidden;fontFamily=Comic Sans MS;fontSize=21;" parent="BjTUC-IhEMKe5PAi5NOE-85" vertex="1">
                    <mxGeometry width="30" height="30" as="geometry">
                        <mxRectangle width="30" height="30" as="alternateBounds"/>
                    </mxGeometry>
                </mxCell>
                <mxCell id="BjTUC-IhEMKe5PAi5NOE-87" value="name" style="shape=partialRectangle;connectable=0;fillColor=none;top=0;left=0;bottom=0;right=0;align=left;spacingLeft=6;overflow=hidden;fontFamily=Comic Sans MS;fontSize=21;" parent="BjTUC-IhEMKe5PAi5NOE-85" vertex="1">
                    <mxGeometry x="30" width="220" height="30" as="geometry">
                        <mxRectangle width="220" height="30" as="alternateBounds"/>
                    </mxGeometry>
                </mxCell>
                <mxCell id="BjTUC-IhEMKe5PAi5NOE-91" value="" style="edgeStyle=entityRelationEdgeStyle;fontSize=12;html=1;endArrow=ERoneToMany;rounded=0;fontFamily=Comic Sans MS;" parent="1" edge="1">
                    <mxGeometry width="100" height="100" relative="1" as="geometry">
                        <mxPoint x="300" y="90" as="sourcePoint"/>
                        <mxPoint x="480" y="120" as="targetPoint"/>
                    </mxGeometry>
                </mxCell>
                <mxCell id="BjTUC-IhEMKe5PAi5NOE-92" value="" style="edgeStyle=entityRelationEdgeStyle;fontSize=12;html=1;endArrow=ERoneToMany;rounded=0;fontFamily=Comic Sans MS;exitX=1;exitY=0.5;exitDx=0;exitDy=0;" parent="1" source="BjTUC-IhEMKe5PAi5NOE-48" edge="1">
                    <mxGeometry width="100" height="100" relative="1" as="geometry">
                        <mxPoint x="360" y="360" as="sourcePoint"/>
                        <mxPoint x="480" y="150" as="targetPoint"/>
                    </mxGeometry>
                </mxCell>
                <mxCell id="BjTUC-IhEMKe5PAi5NOE-94" value="" style="edgeStyle=entityRelationEdgeStyle;fontSize=12;html=1;endArrow=ERoneToMany;rounded=0;fontFamily=Comic Sans MS;entryX=0;entryY=0.5;entryDx=0;entryDy=0;" parent="1" target="BjTUC-IhEMKe5PAi5NOE-20" edge="1">
                    <mxGeometry width="100" height="100" relative="1" as="geometry">
                        <mxPoint x="300" y="363" as="sourcePoint"/>
                        <mxPoint x="460" y="260" as="targetPoint"/>
                    </mxGeometry>
                </mxCell>
            </root>
        </mxGraphModel>
    </diagram>
</mxfile>